<svg xmlns="http://www.w3.org/2000/svg" viewBox="0 0 60 60" fill="none">
  <path d="M11 9a5 5 0 0 1 5-5h17.7a5 5 0 0 1 3.54 1.46l9.3 9.3A5 5 0 0 1 48 18.3V51a5 5 0 0 1-5 5H16a5 5 0 0 1-5-5V9Z" fill="#FF7093"/>
  <rect x="19" y="26" width="22" height="19" rx="3.5" fill="#1A1416"/>
  <path d="M19 32.5h22M19 38.5h22M26.5 26v19M33.5 26v19" stroke="#FF7093" stroke-width="1.7" stroke-linecap="round"/>
  <path d="M35.5 12.5a7.5 7.5 0 0 1 0 8M40 9.5a13 13 0 0 1 0 14" stroke="#1A1416" stroke-width="2.6" stroke-linecap="round"/>
</svg>
